<?xml version="1.0" encoding="iso-8859-1"?>
<!-- Generator: Adobe Illustrator 16.0.0, SVG Export Plug-In . SVG Version: 6.00 Build 0)  -->
<!DOCTYPE svg PUBLIC "-//W3C//DTD SVG 1.1//EN" "http://www.w3.org/Graphics/SVG/1.1/DTD/svg11.dtd">
<svg version="1.1" id="Capa_1" xmlns="http://www.w3.org/2000/svg" xmlns:xlink="http://www.w3.org/1999/xlink" x="0px" y="0px"
	 width="184.233px" height="184.233px" viewBox="0 0 184.233 184.233" style="enable-background:new 0 0 184.233 184.233;"
	 xml:space="preserve">
<g>
	<g>
		<path d="M122.182,87.515c15.486-5.376,25.789-14.739,25.789-25.422v-0.006l0,0c-0.03-2.917-12.578-5.435-30.813-6.664
			c6.366-14.763-10.615-27.938-4.858-48.507c-15.144,13.589,0.178,30.39,0.709,48.246c-6.177-0.333-12.891-0.52-19.934-0.538
			C108.492,37.185,85.724,23.351,92.268,0c-16.94,15.197,4.19,34.413,0.156,54.625h-0.308c-5.145,0-10.107,0.104-14.842,0.272
			c5.751-14.543-10.731-27.659-5.042-47.975c-15.125,13.571,0.133,30.343,0.709,48.167c-21.361,1.043-36.638,3.776-36.673,7.004l0,0
			v0.006c0,10.684,10.291,20.046,25.786,25.422c-20.738,10.852-34.917,32.544-34.917,57.577c0,14.718,4.95,28.241,13.187,39.136
			h23.055c-4.563-6.047-7.312-13.554-7.312-21.711c0-19.913,16.143-36.056,36.05-36.056c19.911,0,36.047,16.143,36.047,36.056
			c0,8.157-2.742,15.664-7.317,21.711h23.058c8.234-10.895,13.193-24.418,13.193-39.136
			C157.103,120.06,142.929,98.367,122.182,87.515z M92.122,67.395c-29.184,0-48.767-2.967-53.087-5.302
			c3.287-1.779,15.427-3.91,33.866-4.835c-0.068,1.75-0.236,3.496-0.656,5.258c1.762-1.833,2.997-3.618,3.979-5.388
			c4.944-0.198,10.181-0.343,15.905-0.343c7.657,0,14.614,0.213,20.839,0.556c-0.071,1.72-0.242,3.44-0.656,5.169
			c1.625-1.688,2.778-3.334,3.735-4.962c15.747,1.023,26.185,2.923,29.176,4.545C140.889,64.428,121.295,67.395,92.122,67.395z"/>
		<path d="M95.577,156.452c4.924-6.07,0.23-14.026-5.137-18.53c1.005,4.912-7.143,11.81-1.876,18.542
			c-6.726,0.349-11.753,1.655-11.753,3.222v21.214c0,1.838,6.856,3.321,15.306,3.321c8.456,0,15.3-1.483,15.3-3.321v-21.214
			C107.416,158.113,102.356,156.801,95.577,156.452z M92.116,162.345c-9.661,0-14.629-1.867-14.629-2.659
			c0-0.798,4.123-2.246,11.632-2.565c0.514,0.567,1.102,1.135,1.835,1.69c-0.745-0.674-1.218-1.342-1.525-1.998l-0.171-0.39
			c-1.162-3.299,2.275-6.49,2.943-10.409c2.353,3.807,4.333,7.478,2.778,10.634l-0.095,0.201l-0.875,1.229l1.011-0.969
			c7.578,0.313,11.732,1.773,11.732,2.577C106.754,160.478,101.766,162.345,92.116,162.345z"/>
		<polygon points="92.122,153.278 91.445,153.952 91.445,159.686 92.122,160.359 92.787,159.686 92.787,153.952 		"/>
	</g>
</g>
<g>
</g>
<g>
</g>
<g>
</g>
<g>
</g>
<g>
</g>
<g>
</g>
<g>
</g>
<g>
</g>
<g>
</g>
<g>
</g>
<g>
</g>
<g>
</g>
<g>
</g>
<g>
</g>
<g>
</g>
</svg>
