<?xml version="1.0" encoding="iso-8859-1"?>
<!-- Generator: Adobe Illustrator 16.0.0, SVG Export Plug-In . SVG Version: 6.00 Build 0)  -->
<!DOCTYPE svg PUBLIC "-//W3C//DTD SVG 1.1//EN" "http://www.w3.org/Graphics/SVG/1.1/DTD/svg11.dtd">
<svg version="1.1" id="Capa_1" xmlns="http://www.w3.org/2000/svg" xmlns:xlink="http://www.w3.org/1999/xlink" x="0px" y="0px"
	 width="192.071px" height="192.072px" viewBox="0 0 192.071 192.072" style="enable-background:new 0 0 192.071 192.072;"
	 xml:space="preserve">
<g>
	<g>
		<path d="M157.2,106.469c6.784-3.162,10.909-7.251,10.909-11.726c0-4.994-5.087-9.503-13.313-12.774
			c8.077-2.438,13.313-6.283,13.313-10.623c0-5.803-9.357-10.728-22.4-12.561c3.861-1.598,6.264-3.749,6.264-6.137
			c0-4.903-10.018-8.876-22.362-8.876c-12.368,0-22.383,3.978-22.383,8.876c0,3.042,3.869,5.721,9.763,7.33
			c-9.664,2.342-16.132,6.556-16.132,11.375c0,2.42,1.65,4.681,4.484,6.642c-16.664,2.687-28.421,9.166-28.421,16.752
			c0,5.548,6.323,10.512,16.247,13.827c-6.367,1.823-11.82,4.088-16.076,6.709c-1.279-14.243-3.369-30.159-6.642-46.515l1.109-0.799
			c1.436,0.958,5.453,3.316,10.249,3.316c6.009,0.006,17.892-3.731,17.892-3.731s-11.878-3.738-17.871-3.732
			c-2.802,0-5.321,0.812-7.238,1.675c3.935-3.391,6.036-5.91,6.552-6.567c2.087-0.7,7.475-2.857,11.138-7.565
			c4.625-5.928,10.109-20.547,10.109-20.547s-12.85,8.87-17.466,14.788c-3.422,4.389-4.337,9.688-4.588,12.187l-0.119,0.062
			c-0.023,0.033-1.592,2.068-4.791,5.038c0.812-2.039,1.905-5.669,1.31-9.593c-0.875-5.923-6.32-17.114-6.32-17.114
			s-1.934,12.291-1.053,18.223c0.7,4.702,3.584,8.312,4.76,9.627c-1.097,0.974-2.587,2.09-3.999,3.182
			c-3.357-16.384-7.872-33.15-13.986-49.057c10.372,41.374,12.361,78.547,12.077,104.745c-3-1.423-5.794-2.824-8.164-4.159
			c1.529-2.66,5.126-9.828,4.604-18.068c-0.642-10.416-8.389-30.58-8.389-30.58s-5.192,20.982-4.531,31.357
			c0.413,6.884,3.574,12.646,5.691,15.824c-6.515-3.885-9.905-6.761-9.961-6.817l-0.225-0.077
			c-1.338-4.152-4.83-12.814-12.203-19.021C25.036,82.981,0,72.587,0,72.587s14.604,22.845,24.616,31.234
			c7.94,6.665,17.857,8.383,21.663,8.801c1.103,0.939,5.603,4.455,13.491,8.792c-3.572-0.777-8.14-1.231-12.891-0.214
			c-10.182,2.147-29.01,12.811-29.01,12.811s21.534,2.029,31.726-0.147c8.166-1.741,14.142-7.224,16.222-9.357
			c0.594,0.284,1.289,0.569,1.962,0.859c-0.364,1.078-0.615,2.184-0.615,3.311c0,1.335,0.346,2.638,0.855,3.917
			c-0.544,16.208-1.822,26.618-1.759,28.816c0.279,11.113,9.475,15.737,11.55,10.079c0.705-1.926,1.361-12.63,0.934-28.465
			c11.325,6.304,29.866,10.431,50.877,10.431c34.491,0,62.451-11.094,62.451-24.778C192.061,118.924,177.833,110.507,157.2,106.469z
			 M114.114,50.349c0-1.278,3.469-2.309,7.74-2.309c4.287,0,7.756,1.031,7.756,2.309c0,1.272-3.482,2.306-7.756,2.306
			C117.583,52.65,114.114,51.616,114.114,50.349z M122.845,64.412c6.425,0,11.64,1.546,11.64,3.475c0,1.91-5.215,3.467-11.64,3.467
			c-6.424,0-11.645-1.552-11.645-3.467C111.2,65.963,116.421,64.412,122.845,64.412z M90.955,90.042
			c0-2.607,7.069-4.708,15.781-4.708c8.713,0,15.781,2.101,15.781,4.708c0,2.595-7.068,4.706-15.781,4.706
			C98.02,94.749,90.955,92.637,90.955,90.042z M107.983,128.675c-11.937,0-21.62-2.885-21.62-6.447c0-3.556,9.684-6.445,21.62-6.445
			c11.939,0,21.627,2.89,21.627,6.445C129.61,125.791,119.923,128.675,107.983,128.675z"/>
	</g>
</g>
<g>
</g>
<g>
</g>
<g>
</g>
<g>
</g>
<g>
</g>
<g>
</g>
<g>
</g>
<g>
</g>
<g>
</g>
<g>
</g>
<g>
</g>
<g>
</g>
<g>
</g>
<g>
</g>
<g>
</g>
</svg>
