<?xml version="1.0" encoding="iso-8859-1"?>
<!-- Generator: Adobe Illustrator 16.0.0, SVG Export Plug-In . SVG Version: 6.00 Build 0)  -->
<!DOCTYPE svg PUBLIC "-//W3C//DTD SVG 1.1//EN" "http://www.w3.org/Graphics/SVG/1.1/DTD/svg11.dtd">
<svg version="1.1" id="Capa_1" xmlns="http://www.w3.org/2000/svg" xmlns:xlink="http://www.w3.org/1999/xlink" x="0px" y="0px"
	 width="170.667px" height="170.667px" viewBox="0 0 170.667 170.667" style="enable-background:new 0 0 170.667 170.667;"
	 xml:space="preserve">
<g>
	<g>
		<path d="M162.713,134.72c-1.685-6.173-7.715-10.058-14.017-9.094l-48.293,7.431V65.223h3.853l8.843,44.161
			c0.531,2.649,2.446,4.805,5.001,5.669l30.13,10.042c0.799,0.257,1.587,0.378,2.38,0.378c3.157,0,6.09-1.98,7.146-5.145
			c1.319-3.95-0.815-8.208-4.761-9.531l-25.981-8.656l-9.198-45.93c-0.7-3.518-3.797-6.049-7.379-6.049H94.44
			c-2.534-1.94-5.66-3.138-9.103-3.138c-3.438,0-6.571,1.198-9.099,3.138H60.24c-3.591,0-6.677,2.531-7.378,6.049l-9.202,45.93
			l-25.984,8.656c-3.931,1.323-6.079,5.581-4.76,9.531c1.31,3.93,5.519,6.02,9.529,4.767l30.13-10.042
			c2.555-0.856,4.473-3.02,5.003-5.669l8.837-44.161h3.856v67.834l-48.295-7.431c-6.305-0.964-12.338,2.921-14.021,9.094
			c-1.686,6.151,1.519,12.597,7.447,14.955l50.211,20.088c6.416,2.578,13.73-0.548,16.307-6.988c0.325-0.804,0.56-1.614,0.711-2.418
			l0.79,0.115c1.284,0.202,2.556,0.202,3.831,0l0.791-0.115c0.155,0.804,0.389,1.614,0.711,2.418
			c1.958,4.908,6.667,7.891,11.655,7.891c1.549,0,3.136-0.289,4.657-0.902l50.205-20.088
			C161.187,147.317,164.394,140.872,162.713,134.72z"/>
		<path d="M85.333,45.869c12.676,0,22.942-10.255,22.942-22.947C108.275,10.255,98.008,0,85.333,0S62.392,10.255,62.392,22.922
			C62.392,35.614,72.657,45.869,85.333,45.869z"/>
	</g>
</g>
<g>
</g>
<g>
</g>
<g>
</g>
<g>
</g>
<g>
</g>
<g>
</g>
<g>
</g>
<g>
</g>
<g>
</g>
<g>
</g>
<g>
</g>
<g>
</g>
<g>
</g>
<g>
</g>
<g>
</g>
</svg>
